<?xml version="1.0" encoding="utf-8"?>
<!-- Generator: Adobe Illustrator 22.1.0, SVG Export Plug-In . SVG Version: 6.00 Build 0)  -->
<svg version="1.1" id="Capa_1" xmlns="http://www.w3.org/2000/svg" xmlns:xlink="http://www.w3.org/1999/xlink" x="0px" y="0px"
	 viewBox="0 0 97.5 32.9" style="enable-background:new 0 0 97.5 32.9;" xml:space="preserve">
<style type="text/css">
	.st0{fill:#F79A46;}
	.st1{fill:#47B871;}
	.st2{fill:#4F938A;}
	.st3{fill:#376660;}
	.st4{fill:#1C303D;}
	.st5{fill:#25394A;}
	.st6{fill:#5BBC79;}
	.st7{fill:#333537;}
</style>
<g>
	<g>
		<path class="st0" d="M18.5,16.6l-1.7-1l0.9-2.1c0-0.1,0-0.1,0-0.2c0-0.2-0.2-0.4-0.4-0.4c-0.1,0-0.2,0-0.3,0.1c0,0,0,0,0,0
			l-3.1,2.9c-0.1,0.1-0.1,0.2-0.1,0.3c0,0.1,0.1,0.2,0.2,0.3l1.7,1l-0.9,2.1c-0.1,0.2,0,0.4,0.1,0.5c0.1,0,0.2,0.1,0.2,0.1
			c0.1,0,0.2,0,0.3-0.1l3.1-2.9c0.1-0.1,0.1-0.2,0.1-0.3C18.7,16.7,18.6,16.6,18.5,16.6"/>
		<polygon class="st1" points="29.2,17.3 29.2,9.1 16.3,1.5 16.3,9.7 		"/>
		<polygon class="st2" points="3.3,15.7 3.3,24 16.3,31.6 16.3,23.4 		"/>
		<polygon class="st3" points="29.2,15.8 29.2,24 16.2,31.5 16.3,23.3 		"/>
		<polygon class="st4" points="3.3,17.3 3.2,9.1 16.3,1.5 16.3,9.7 		"/>
		<polygon class="st5" points="10.4,13.2 3.2,9.1 3.3,24.1 10.4,19.9 		"/>
		<polygon class="st6" points="29.2,9.1 22.2,13.3 22.1,19.9 29.2,24.1 		"/>
	</g>
	<g>
		<g>
			<path class="st5" d="M33.8,15.2h0.9v0.7c0,0.3,0,0.7,0.4,0.7c0.4,0,0.4-0.3,0.4-0.7v-5.7h1V16c0,0.9-0.4,1.4-1.4,1.4
				c-0.8,0-1.3-0.2-1.3-1.2V15.2z"/>
			<path class="st5" d="M37,10.1h1v3.1h1.3v-3.1h1v7.2h-1v-3.3H38v3.3h-1V10.1z"/>
			<path class="st5" d="M40.7,12c0-1,0.3-1.9,1.7-1.9c1.3,0,1.7,0.7,1.7,1.8v3.6c0,1-0.3,1.9-1.7,1.9c-1.3,0-1.7-0.7-1.7-1.8V12z
				 M41.7,15.7c0,0.6,0.3,0.9,0.7,0.9c0.4,0,0.7-0.3,0.7-0.9v-3.8c0-0.7-0.2-1-0.7-1c-0.4,0-0.7,0.3-0.7,1V15.7z"/>
			<path class="st5" d="M44.5,10.1h1.4l1.2,6h0v-6H48v7.2h-1.4l-1.2-6.1h0v6.1h-0.9V10.1z"/>
			<path class="st5" d="M49.7,10.1h1.2l1.5,7.2h-1L51,15.5h-1.5l-0.3,1.8h-1L49.7,10.1z M49.6,14.7h1.3l-0.6-3.5h0L49.6,14.7z"/>
			<path class="st5" d="M51.4,10.1h3.4V11h-1.2v6.3h-1V11h-1.2V10.1z"/>
			<path class="st5" d="M55.5,10.1h1.2l1.5,7.2h-1l-0.3-1.8h-1.5l-0.3,1.8h-1L55.5,10.1z M55.4,14.7h1.3L56,11.2h0L55.4,14.7z"/>
			<path class="st5" d="M58.3,10.1h1.4l1.2,6h0v-6h0.9v7.2h-1.4l-1.2-6.1h0v6.1h-0.9V10.1z"/>
			<path class="st5" d="M64.2,12c0-1,0.3-1.9,1.7-1.9c1,0,1.4,0.5,1.4,1.3v0.7h-0.9v-0.5c0-0.5-0.2-0.7-0.6-0.7
				c-0.5,0-0.6,0.4-0.6,1.2v3.5c0,0.8,0.3,1,0.6,1c0.4,0,0.6-0.3,0.6-0.9v-0.5h0.9V16c0,0.8-0.3,1.3-1.5,1.3c-1.3,0-1.7-0.7-1.7-1.8
				V12z"/>
			<path class="st5" d="M67.8,12c0-1,0.3-1.9,1.7-1.9c1.3,0,1.7,0.7,1.7,1.8v3.6c0,1-0.3,1.9-1.7,1.9c-1.3,0-1.7-0.7-1.7-1.8V12z
				 M68.8,15.7c0,0.6,0.3,0.9,0.7,0.9c0.4,0,0.7-0.3,0.7-0.9v-3.8c0-0.7-0.2-1-0.7-1c-0.4,0-0.7,0.3-0.7,1V15.7z"/>
			<path class="st5" d="M71.9,10.1h1.5c1.4,0,1.6,0.4,1.6,2c0,1-0.1,1.4-0.9,1.6v0c0.7,0.1,0.9,0.4,0.9,1.1v1.6c0,0.3,0,0.6,0.1,0.9
				h-0.9C74,17.1,74,17,74,16.7v-1.6c0-0.7-0.1-0.9-0.8-0.9h-0.3v3.1h-1V10.1z M72.9,13.4h0.3c0.8,0,0.9-0.1,0.9-1.2
				c0-1.1-0.1-1.2-0.7-1.2h-0.5V13.4z"/>
			<path class="st5" d="M75.7,10.1h1.5c1.4,0,1.6,0.4,1.6,2c0,1-0.1,1.4-0.9,1.6v0c0.7,0.1,0.9,0.4,0.9,1.1v1.6c0,0.3,0,0.6,0.1,0.9
				H78c-0.1-0.2-0.1-0.4-0.1-0.6v-1.6c0-0.7-0.1-0.9-0.8-0.9h-0.3v3.1h-1V10.1z M76.7,13.4H77c0.8,0,0.9-0.1,0.9-1.2
				c0-1.1-0.1-1.2-0.7-1.2h-0.5V13.4z"/>
			<path class="st5" d="M79.6,10.1h2.7V11h-1.7v2.2h1.6v0.8h-1.6v2.4h1.7v0.8h-2.7V10.1z"/>
			<path class="st5" d="M82.7,10.1h1.6c1.6,0,1.7,0.5,1.7,2.6v2.1c0,1.8-0.3,2.4-1.9,2.4h-1.4V10.1z M83.7,16.5h0.5
				c0.7,0,0.9-0.4,0.9-1.6v-2.5c0-1.1-0.1-1.4-1-1.4h-0.4V16.5z"/>
			<path class="st5" d="M86.7,12c0-1,0.3-1.9,1.7-1.9c1.3,0,1.7,0.7,1.7,1.8v3.6c0,1-0.3,1.9-1.7,1.9c-1.3,0-1.7-0.7-1.7-1.8V12z
				 M87.7,15.7c0,0.6,0.3,0.9,0.7,0.9c0.4,0,0.7-0.3,0.7-0.9v-3.8c0-0.7-0.2-1-0.7-1c-0.4,0-0.7,0.3-0.7,1V15.7z"/>
			<path class="st5" d="M90.8,10.1h1.5c1.4,0,1.6,0.4,1.6,2c0,1-0.1,1.4-0.9,1.6v0c0.7,0.1,0.9,0.4,0.9,1.1v1.6c0,0.3,0,0.6,0.1,0.9
				H93c-0.1-0.2-0.1-0.4-0.1-0.6v-1.6c0-0.7-0.1-0.9-0.8-0.9h-0.3v3.1h-1V10.1z M91.8,13.4h0.3c0.8,0,0.9-0.1,0.9-1.2
				c0-1.1-0.1-1.2-0.7-1.2h-0.5V13.4z"/>
		</g>
		<g>
			<path class="st7" d="M33.8,20.9h0.3l0.8,2.5l0.8-2.5h0.3l-1,2.8h-0.3L33.8,20.9z"/>
			<path class="st7" d="M38.5,23.7v-2.8h0.3v2.8H38.5z"/>
			<path class="st7" d="M41.5,22.9c0,0.1,0,0.2,0.1,0.3c0,0.1,0.1,0.2,0.2,0.2c0.1,0.1,0.2,0.1,0.2,0.1c0.1,0,0.2,0,0.3,0
				c0.1,0,0.2,0,0.3,0c0.1,0,0.2-0.1,0.2-0.1c0.1-0.1,0.1-0.1,0.1-0.2c0-0.1,0-0.1,0-0.2c0-0.1,0-0.2-0.1-0.3c0-0.1-0.1-0.1-0.2-0.2
				c-0.1,0-0.2-0.1-0.3-0.1c-0.1,0-0.2-0.1-0.3-0.1c-0.1,0-0.2-0.1-0.3-0.1c-0.1,0-0.2-0.1-0.3-0.1c-0.1-0.1-0.1-0.1-0.2-0.2
				c0-0.1-0.1-0.2-0.1-0.3c0-0.1,0-0.2,0.1-0.3c0-0.1,0.1-0.2,0.2-0.2c0.1-0.1,0.2-0.1,0.3-0.2c0.1,0,0.3-0.1,0.4-0.1
				c0.2,0,0.3,0,0.4,0.1c0.1,0,0.2,0.1,0.3,0.2c0.1,0.1,0.1,0.2,0.2,0.3c0,0.1,0.1,0.2,0.1,0.3h-0.3c0-0.1,0-0.2-0.1-0.3
				c0-0.1-0.1-0.1-0.2-0.2c-0.1,0-0.1-0.1-0.2-0.1c-0.1,0-0.2,0-0.3,0c-0.1,0-0.2,0-0.3,0.1c-0.1,0-0.2,0.1-0.2,0.1
				c-0.1,0.1-0.1,0.1-0.1,0.2c0,0.1,0,0.1,0,0.2c0,0.1,0.1,0.2,0.1,0.2c0.1,0.1,0.1,0.1,0.2,0.1c0.1,0,0.2,0.1,0.3,0.1
				c0.1,0,0.2,0,0.3,0.1c0.1,0,0.2,0.1,0.3,0.1s0.2,0.1,0.3,0.1c0.1,0.1,0.1,0.1,0.2,0.2c0,0.1,0.1,0.2,0.1,0.3
				c0,0.3-0.1,0.5-0.3,0.6c-0.2,0.1-0.4,0.2-0.8,0.2c-0.1,0-0.3,0-0.4-0.1c-0.1,0-0.2-0.1-0.3-0.2c-0.1-0.1-0.2-0.2-0.2-0.3
				c-0.1-0.1-0.1-0.2-0.1-0.4H41.5z"/>
			<path class="st7" d="M45.6,20.9h0.3v1.7c0,0.3,0.1,0.6,0.2,0.8c0.1,0.2,0.3,0.2,0.6,0.2c0.2,0,0.3,0,0.4-0.1
				c0.1,0,0.2-0.1,0.3-0.2c0.1-0.1,0.1-0.2,0.1-0.3c0-0.1,0-0.3,0-0.4v-1.7h0.3v1.7c0,0.4-0.1,0.6-0.3,0.8c-0.2,0.2-0.5,0.3-0.8,0.3
				c-0.4,0-0.6-0.1-0.8-0.3c-0.2-0.2-0.3-0.5-0.3-0.8V20.9z"/>
			<path class="st7" d="M50.1,23.7l1.1-2.8h0.3l1.1,2.8h-0.3L52,22.8h-1.3l-0.3,0.9H50.1z M50.8,22.6h1.1l-0.5-1.5L50.8,22.6z"/>
			<path class="st7" d="M54.8,23.7v-2.8h0.3v2.6h1.5v0.2H54.8z"/>
			<path class="st7" d="M61.9,23.7v-2.8h1c0.1,0,0.2,0,0.2,0c0.1,0,0.1,0,0.2,0c0.1,0,0.1,0,0.2,0.1c0.1,0,0.1,0.1,0.2,0.1
				c0.1,0.1,0.2,0.2,0.2,0.2c0.1,0.1,0.1,0.2,0.1,0.3c0,0.1,0.1,0.2,0.1,0.3c0,0.1,0,0.2,0,0.3c0,0.1,0,0.2,0,0.3
				c0,0.1,0,0.2-0.1,0.3c0,0.1-0.1,0.2-0.1,0.3c0,0.1-0.1,0.2-0.2,0.2c-0.1,0.1-0.1,0.1-0.2,0.2c-0.1,0-0.2,0.1-0.2,0.1
				s-0.2,0-0.3,0.1c-0.1,0-0.2,0-0.3,0H61.9z M62.2,23.5h0.6c0.1,0,0.2,0,0.3,0c0.1,0,0.2-0.1,0.3-0.1c0.1,0,0.2-0.1,0.2-0.2
				c0.1-0.1,0.1-0.2,0.1-0.3c0-0.1,0.1-0.2,0.1-0.3c0-0.1,0-0.2,0-0.3c0-0.1,0-0.2,0-0.3c0-0.1,0-0.2-0.1-0.3c0-0.1-0.1-0.2-0.1-0.3
				c-0.1-0.1-0.1-0.1-0.2-0.2c-0.1,0-0.2-0.1-0.3-0.1c-0.1,0-0.2,0-0.3,0h-0.6V23.5z"/>
			<path class="st7" d="M66.6,23.7v-2.8h1.9v0.2h-1.6v1h1.4v0.2h-1.4v1.1h1.6v0.2H66.6z"/>
			<path class="st7" d="M71,22.9c0,0.1,0,0.2,0.1,0.3c0,0.1,0.1,0.2,0.2,0.2s0.2,0.1,0.2,0.1s0.2,0,0.3,0c0.1,0,0.2,0,0.3,0
				c0.1,0,0.2-0.1,0.2-0.1c0.1-0.1,0.1-0.1,0.1-0.2c0-0.1,0-0.1,0-0.2c0-0.1,0-0.2-0.1-0.3c0-0.1-0.1-0.1-0.2-0.2
				c-0.1,0-0.2-0.1-0.3-0.1c-0.1,0-0.2-0.1-0.3-0.1c-0.1,0-0.2-0.1-0.3-0.1c-0.1,0-0.2-0.1-0.3-0.1c-0.1-0.1-0.1-0.1-0.2-0.2
				c0-0.1-0.1-0.2-0.1-0.3c0-0.1,0-0.2,0.1-0.3c0-0.1,0.1-0.2,0.2-0.2c0.1-0.1,0.2-0.1,0.3-0.2c0.1,0,0.3-0.1,0.4-0.1
				c0.2,0,0.3,0,0.4,0.1c0.1,0,0.2,0.1,0.3,0.2c0.1,0.1,0.1,0.2,0.2,0.3c0,0.1,0.1,0.2,0.1,0.3h-0.3c0-0.1,0-0.2-0.1-0.3
				c0-0.1-0.1-0.1-0.2-0.2c-0.1,0-0.1-0.1-0.2-0.1c-0.1,0-0.2,0-0.3,0c-0.1,0-0.2,0-0.3,0.1c-0.1,0-0.2,0.1-0.2,0.1
				c-0.1,0.1-0.1,0.1-0.1,0.2c0,0.1,0,0.1,0,0.2c0,0.1,0.1,0.2,0.1,0.2c0.1,0.1,0.1,0.1,0.2,0.1c0.1,0,0.2,0.1,0.3,0.1
				c0.1,0,0.2,0,0.3,0.1c0.1,0,0.2,0.1,0.3,0.1c0.1,0,0.2,0.1,0.3,0.1c0.1,0.1,0.1,0.1,0.2,0.2s0.1,0.2,0.1,0.3
				c0,0.3-0.1,0.5-0.3,0.6c-0.2,0.1-0.4,0.2-0.8,0.2c-0.1,0-0.3,0-0.4-0.1c-0.1,0-0.2-0.1-0.3-0.2c-0.1-0.1-0.2-0.2-0.2-0.3
				c-0.1-0.1-0.1-0.2-0.1-0.4H71z"/>
			<path class="st7" d="M75.3,23.7v-2.8h0.3v2.8H75.3z"/>
			<path class="st7" d="M79.3,22.5v-0.2h1.2v1.4h-0.2v-0.5c0,0.1-0.1,0.2-0.2,0.2c-0.1,0.1-0.1,0.1-0.2,0.2c-0.1,0-0.2,0.1-0.3,0.1
				c-0.1,0-0.2,0-0.4,0c-0.2,0-0.3,0-0.5-0.1c-0.1-0.1-0.3-0.2-0.4-0.3c-0.1-0.1-0.2-0.3-0.3-0.5s-0.1-0.4-0.1-0.7
				c0-0.2,0-0.4,0.1-0.6c0.1-0.2,0.1-0.3,0.2-0.5c0.1-0.1,0.2-0.2,0.4-0.3s0.4-0.1,0.6-0.1c0.1,0,0.3,0,0.4,0.1
				c0.1,0,0.2,0.1,0.3,0.2c0.1,0.1,0.2,0.2,0.3,0.3c0.1,0.1,0.1,0.2,0.2,0.4h-0.3c0-0.1-0.1-0.2-0.1-0.3s-0.1-0.2-0.2-0.2
				c-0.1-0.1-0.2-0.1-0.3-0.1c-0.1,0-0.2,0-0.3,0c-0.2,0-0.3,0-0.5,0.1c-0.1,0.1-0.2,0.2-0.3,0.3c-0.1,0.1-0.1,0.3-0.2,0.4
				c0,0.2-0.1,0.3-0.1,0.5c0,0.2,0,0.3,0.1,0.4c0,0.1,0.1,0.3,0.2,0.4c0.1,0.1,0.2,0.2,0.3,0.3c0.1,0.1,0.3,0.1,0.4,0.1
				c0.1,0,0.2,0,0.2,0c0.1,0,0.2,0,0.2-0.1c0.1,0,0.1-0.1,0.2-0.2c0.1-0.1,0.1-0.1,0.2-0.2c0-0.1,0.1-0.2,0.1-0.3c0-0.1,0-0.2,0-0.3
				H79.3z"/>
			<path class="st7" d="M83.4,21.3L83.4,21.3l0,2.4h-0.3v-2.8h0.3l1.6,2.4h0v-2.4h0.3v2.8H85L83.4,21.3z"/>
			<path class="st7" d="M87.8,23.7v-2.8h1.9v0.2h-1.6v1h1.4v0.2h-1.4v1.1h1.6v0.2H87.8z"/>
			<path class="st7" d="M92.3,22.4v1.3l-0.3,0v-2.8h1.1c0.3,0,0.5,0.1,0.7,0.2s0.2,0.3,0.2,0.6c0,0.2,0,0.3-0.1,0.4
				c-0.1,0.1-0.2,0.2-0.3,0.3c0.1,0,0.1,0.1,0.2,0.1c0,0.1,0.1,0.1,0.1,0.2c0,0.1,0,0.1,0,0.2c0,0.1,0,0.2,0,0.2c0,0.1,0,0.2,0,0.3
				c0,0.1,0,0.1,0,0.2c0,0,0,0.1,0,0.1s0,0,0,0.1v0l-0.3,0c0,0,0-0.1-0.1-0.2c0-0.1,0-0.2,0-0.3c0-0.1,0-0.2,0-0.3
				c0-0.1,0-0.2,0-0.2c0-0.1,0-0.1-0.1-0.2c0,0-0.1-0.1-0.1-0.1c0,0-0.1,0-0.2,0c-0.1,0-0.1,0-0.2,0H92.3z M93.2,22.2
				c0.1,0,0.2,0,0.3,0c0.1,0,0.2-0.1,0.2-0.1c0.1,0,0.1-0.1,0.1-0.2c0-0.1,0.1-0.2,0.1-0.3c0-0.1,0-0.2-0.1-0.3
				c0-0.1-0.1-0.1-0.2-0.2c-0.1,0-0.1-0.1-0.2-0.1c-0.1,0-0.2,0-0.3,0h-0.8v1.1H93.2z"/>
		</g>
	</g>
</g>
</svg>
