<?xml version="1.0" encoding="utf-8"?>
<!-- Generator: Adobe Illustrator 22.1.0, SVG Export Plug-In . SVG Version: 6.00 Build 0)  -->
<svg version="1.1" id="Capa_1" xmlns="http://www.w3.org/2000/svg" xmlns:xlink="http://www.w3.org/1999/xlink" x="0px" y="0px"
	 viewBox="0 0 97.5 32.9" style="enable-background:new 0 0 97.5 32.9;" xml:space="preserve">
<style type="text/css">
	.st0{fill:#F79A46;}
	.st1{fill:#47B871;}
	.st2{fill:#4F938A;}
	.st3{fill:#376660;}
	.st4{fill:#1C303D;}
	.st5{fill:#25394A;}
	.st6{fill:#5BBC79;}
	.st7{fill:#333537;stroke:#333537;stroke-width:0.15;stroke-miterlimit:10;}
</style>
<g>
	<g>
		<path class="st0" d="M16.4,16.6l-1.9-1.1l0.9-2.3c0-0.1,0-0.1,0-0.2c0-0.2-0.2-0.4-0.4-0.4c-0.1,0-0.2,0-0.3,0.1c0,0,0,0,0,0
			l-3.3,3.1c-0.1,0.1-0.1,0.2-0.1,0.4c0,0.1,0.1,0.3,0.2,0.3l1.9,1.1l-0.9,2.3c-0.1,0.2,0,0.4,0.2,0.5c0.1,0.1,0.2,0.1,0.2,0.1
			c0.1,0,0.2,0,0.3-0.1l3.3-3.1c0.1-0.1,0.1-0.2,0.1-0.4C16.6,16.7,16.5,16.6,16.4,16.6"/>
		<polygon class="st1" points="27.9,17.4 27.9,8.6 14,0.5 14.1,9.2 		"/>
		<polygon class="st2" points="0.2,15.7 0.2,24.5 14.1,32.6 14.1,23.8 		"/>
		<polygon class="st3" points="27.8,15.8 27.8,24.6 14,32.6 14,23.8 		"/>
		<polygon class="st4" points="0.2,17.4 0.1,8.6 14,0.5 14.1,9.2 		"/>
		<polygon class="st5" points="7.8,12.9 0.1,8.6 0.2,24.6 7.8,20.2 		"/>
		<polygon class="st6" points="27.9,8.6 20.3,13 20.3,20.2 27.9,24.6 		"/>
	</g>
	<g>
		<g>
			<path class="st5" d="M32.8,15.1h1v0.8c0,0.3,0,0.7,0.4,0.7c0.4,0,0.4-0.4,0.4-0.8V9.7h1.1V16c0,0.9-0.4,1.5-1.5,1.5
				c-0.9,0-1.4-0.3-1.4-1.3V15.1z"/>
			<path class="st5" d="M36.2,9.7h1.1V13h1.4V9.7h1.1v7.7h-1.1v-3.5h-1.4v3.5h-1.1V9.7z"/>
			<path class="st5" d="M40.1,11.7c0-1.1,0.4-2,1.8-2c1.4,0,1.8,0.7,1.8,1.9v3.9c0,1.1-0.4,2-1.8,2c-1.4,0-1.8-0.7-1.8-1.9V11.7z
				 M41.2,15.6c0,0.7,0.3,1,0.7,1c0.4,0,0.7-0.4,0.7-1v-4c0-0.8-0.3-1.1-0.7-1.1c-0.5,0-0.7,0.4-0.7,1.1V15.6z"/>
			<path class="st5" d="M44.2,9.7h1.5l1.3,6.4h0V9.7h1v7.7h-1.5l-1.3-6.5h0v6.5h-0.9V9.7z"/>
			<path class="st5" d="M49.8,9.7H51l1.6,7.7h-1.1l-0.4-2h-1.7l-0.3,2h-1.1L49.8,9.7z M49.7,14.5H51l-0.7-3.7h0L49.7,14.5z"/>
			<path class="st5" d="M51.6,9.7h3.6v0.9h-1.3v6.8h-1.1v-6.8h-1.3V9.7z"/>
			<path class="st5" d="M55.9,9.7h1.2l1.6,7.7h-1.1l-0.4-2h-1.7l-0.4,2h-1.1L55.9,9.7z M55.8,14.5h1.3l-0.7-3.7h0L55.8,14.5z"/>
			<path class="st5" d="M58.9,9.7h1.5l1.3,6.4h0V9.7h1v7.7h-1.5l-1.3-6.5h0v6.5h-0.9V9.7z"/>
			<path class="st5" d="M65.3,11.7c0-1.1,0.4-2,1.8-2c1,0,1.5,0.5,1.5,1.4v0.8h-1v-0.5c0-0.5-0.2-0.8-0.6-0.8
				c-0.6,0-0.7,0.4-0.7,1.3v3.8c0,0.9,0.3,1.1,0.6,1.1c0.4,0,0.6-0.3,0.6-0.9v-0.5h1V16c0,0.8-0.3,1.4-1.6,1.4
				c-1.3,0-1.8-0.7-1.8-1.9V11.7z"/>
			<path class="st5" d="M69.1,11.7c0-1.1,0.4-2,1.8-2c1.4,0,1.8,0.7,1.8,1.9v3.9c0,1.1-0.4,2-1.8,2c-1.4,0-1.8-0.7-1.8-1.9V11.7z
				 M70.2,15.6c0,0.7,0.3,1,0.7,1c0.4,0,0.7-0.4,0.7-1v-4c0-0.8-0.3-1.1-0.7-1.1c-0.5,0-0.7,0.4-0.7,1.1V15.6z"/>
			<path class="st5" d="M73.5,9.7h1.6c1.5,0,1.7,0.4,1.7,2.1c0,1-0.1,1.5-1,1.7v0c0.7,0.1,1,0.4,1,1.2v1.7c0,0.3,0,0.7,0.1,1h-1
				c-0.1-0.2-0.1-0.4-0.1-0.7V15c0-0.7-0.1-0.9-0.8-0.9h-0.4v3.3h-1.1V9.7z M74.5,13.1h0.3c0.8,0,1-0.2,1-1.3c0-1.1-0.1-1.2-0.7-1.2
				h-0.5V13.1z"/>
			<path class="st5" d="M77.6,9.7h1.6c1.5,0,1.7,0.4,1.7,2.1c0,1-0.1,1.5-1,1.7v0c0.7,0.1,1,0.4,1,1.2v1.7c0,0.3,0,0.7,0.1,1h-1
				c-0.1-0.2-0.1-0.4-0.1-0.7V15c0-0.7-0.1-0.9-0.8-0.9h-0.4v3.3h-1.1V9.7z M78.7,13.1h0.3c0.8,0,1-0.2,1-1.3c0-1.1-0.1-1.2-0.7-1.2
				h-0.5V13.1z"/>
			<path class="st5" d="M81.7,9.7h2.9v0.9h-1.8V13h1.7v0.9h-1.7v2.6h1.8v0.9h-2.9V9.7z"/>
			<path class="st5" d="M85.1,9.7h1.7c1.7,0,1.9,0.6,1.9,2.8v2.3c0,2-0.4,2.6-2,2.6h-1.5V9.7z M86.1,16.5h0.5c0.8,0,0.9-0.4,0.9-1.7
				v-2.6c0-1.1-0.1-1.5-1-1.5h-0.4V16.5z"/>
			<path class="st5" d="M89.3,11.7c0-1.1,0.4-2,1.8-2c1.4,0,1.8,0.7,1.8,1.9v3.9c0,1.1-0.4,2-1.8,2c-1.4,0-1.8-0.7-1.8-1.9V11.7z
				 M90.4,15.6c0,0.7,0.3,1,0.7,1c0.4,0,0.7-0.4,0.7-1v-4c0-0.8-0.3-1.1-0.7-1.1c-0.5,0-0.7,0.4-0.7,1.1V15.6z"/>
			<path class="st5" d="M93.7,9.7h1.6c1.5,0,1.7,0.4,1.7,2.1c0,1-0.1,1.5-1,1.7v0c0.7,0.1,1,0.4,1,1.2v1.7c0,0.3,0,0.7,0.1,1h-1
				c-0.1-0.2-0.1-0.4-0.1-0.7V15c0-0.7-0.1-0.9-0.8-0.9h-0.4v3.3h-1.1V9.7z M94.8,13.1H95c0.8,0,1-0.2,1-1.3c0-1.1-0.1-1.2-0.7-1.2
				h-0.5V13.1z"/>
		</g>
		<g>
			<path class="st7" d="M32.8,21.2h0.3l0.9,2.7l0.9-2.7h0.3l-1,3h-0.3L32.8,21.2z"/>
			<path class="st7" d="M37.8,24.2v-3H38v3H37.8z"/>
			<path class="st7" d="M41,23.3c0,0.1,0,0.2,0.1,0.3c0,0.1,0.1,0.2,0.2,0.2c0.1,0.1,0.2,0.1,0.3,0.1c0.1,0,0.2,0,0.3,0
				c0.1,0,0.2,0,0.3,0c0.1,0,0.2-0.1,0.2-0.1s0.1-0.1,0.1-0.2c0-0.1,0-0.2,0-0.2c0-0.1,0-0.2-0.1-0.3c-0.1-0.1-0.1-0.1-0.2-0.2
				c-0.1,0-0.2-0.1-0.3-0.1c-0.1,0-0.2-0.1-0.3-0.1c-0.1,0-0.2-0.1-0.3-0.1s-0.2-0.1-0.3-0.1c-0.1-0.1-0.2-0.1-0.2-0.2
				c-0.1-0.1-0.1-0.2-0.1-0.4c0-0.1,0-0.2,0.1-0.3c0-0.1,0.1-0.2,0.2-0.3c0.1-0.1,0.2-0.1,0.3-0.2c0.1,0,0.3-0.1,0.4-0.1
				c0.2,0,0.3,0,0.4,0.1c0.1,0,0.2,0.1,0.3,0.2s0.1,0.2,0.2,0.3c0,0.1,0.1,0.2,0.1,0.3h-0.3c0-0.1,0-0.2-0.1-0.3
				c0-0.1-0.1-0.2-0.2-0.2c-0.1-0.1-0.1-0.1-0.2-0.1c-0.1,0-0.2,0-0.3,0c-0.1,0-0.3,0-0.4,0.1c-0.1,0-0.2,0.1-0.2,0.2
				c-0.1,0.1-0.1,0.1-0.1,0.2c0,0.1,0,0.2,0,0.2c0,0.1,0.1,0.2,0.1,0.2c0.1,0.1,0.1,0.1,0.2,0.1c0.1,0,0.2,0.1,0.3,0.1
				s0.2,0,0.3,0.1s0.2,0.1,0.3,0.1c0.1,0,0.2,0.1,0.3,0.1c0.1,0.1,0.1,0.1,0.2,0.2c0,0.1,0.1,0.2,0.1,0.4c0,0.3-0.1,0.5-0.3,0.6
				c-0.2,0.2-0.5,0.2-0.8,0.2c-0.2,0-0.3,0-0.4-0.1c-0.1,0-0.2-0.1-0.3-0.2c-0.1-0.1-0.2-0.2-0.2-0.3c-0.1-0.1-0.1-0.3-0.1-0.4H41z"
				/>
			<path class="st7" d="M45.4,21.2h0.3V23c0,0.4,0.1,0.6,0.2,0.8c0.1,0.2,0.4,0.2,0.7,0.2c0.2,0,0.3,0,0.4-0.1
				c0.1,0,0.2-0.1,0.3-0.2c0.1-0.1,0.1-0.2,0.1-0.3c0-0.1,0-0.3,0-0.5v-1.8h0.3v1.9c0,0.4-0.1,0.7-0.3,0.9c-0.2,0.2-0.5,0.3-0.9,0.3
				c-0.4,0-0.7-0.1-0.9-0.3c-0.2-0.2-0.3-0.5-0.3-0.9V21.2z"/>
			<path class="st7" d="M50.2,24.2l1.2-3h0.3l1.1,3h-0.3l-0.3-0.9h-1.4l-0.4,0.9H50.2z M50.9,23h1.2l-0.6-1.6L50.9,23z"/>
			<path class="st7" d="M55.3,24.2v-3h0.3V24h1.6v0.2H55.3z"/>
			<path class="st7" d="M62.8,24.2v-3h1c0.1,0,0.2,0,0.2,0c0.1,0,0.2,0,0.2,0c0.1,0,0.2,0,0.2,0.1c0.1,0,0.1,0.1,0.2,0.1
				c0.1,0.1,0.2,0.2,0.2,0.3c0.1,0.1,0.1,0.2,0.2,0.3c0,0.1,0.1,0.2,0.1,0.3c0,0.1,0,0.2,0,0.3s0,0.2,0,0.3c0,0.1,0,0.2-0.1,0.3
				c0,0.1-0.1,0.2-0.1,0.3c0,0.1-0.1,0.2-0.2,0.2c-0.1,0.1-0.1,0.1-0.2,0.2c-0.1,0-0.2,0.1-0.3,0.1s-0.2,0-0.3,0.1
				c-0.1,0-0.2,0-0.3,0H62.8z M63.1,24h0.7c0.1,0,0.2,0,0.4,0c0.1,0,0.2-0.1,0.3-0.1c0.1-0.1,0.2-0.1,0.2-0.2
				c0.1-0.1,0.1-0.2,0.2-0.3c0-0.1,0.1-0.2,0.1-0.3c0-0.1,0-0.2,0-0.3c0-0.1,0-0.2,0-0.3c0-0.1,0-0.2-0.1-0.3c0-0.1-0.1-0.2-0.2-0.3
				s-0.2-0.2-0.3-0.2c-0.1,0-0.2-0.1-0.3-0.1c-0.1,0-0.2,0-0.4,0h-0.7V24z"/>
			<path class="st7" d="M67.8,24.2v-3h2v0.2h-1.7v1.1h1.5v0.2h-1.5V24h1.7v0.2H67.8z"/>
			<path class="st7" d="M72.5,23.3c0,0.1,0,0.2,0.1,0.3s0.1,0.2,0.2,0.2c0.1,0.1,0.2,0.1,0.3,0.1s0.2,0,0.3,0c0.1,0,0.2,0,0.3,0
				c0.1,0,0.2-0.1,0.2-0.1s0.1-0.1,0.1-0.2c0-0.1,0-0.2,0-0.2c0-0.1,0-0.2-0.1-0.3C74,23.1,74,23,73.9,23c-0.1,0-0.2-0.1-0.3-0.1
				c-0.1,0-0.2-0.1-0.3-0.1c-0.1,0-0.2-0.1-0.3-0.1s-0.2-0.1-0.3-0.1c-0.1-0.1-0.2-0.1-0.2-0.2c-0.1-0.1-0.1-0.2-0.1-0.4
				c0-0.1,0-0.2,0.1-0.3c0-0.1,0.1-0.2,0.2-0.3c0.1-0.1,0.2-0.1,0.3-0.2c0.1,0,0.3-0.1,0.4-0.1c0.2,0,0.3,0,0.4,0.1
				c0.1,0,0.2,0.1,0.3,0.2s0.1,0.2,0.2,0.3c0,0.1,0.1,0.2,0.1,0.3h-0.3c0-0.1,0-0.2-0.1-0.3c0-0.1-0.1-0.2-0.2-0.2
				c-0.1-0.1-0.1-0.1-0.2-0.1c-0.1,0-0.2,0-0.3,0c-0.1,0-0.3,0-0.4,0.1c-0.1,0-0.2,0.1-0.2,0.2c-0.1,0.1-0.1,0.1-0.1,0.2
				c0,0.1,0,0.2,0,0.2c0,0.1,0.1,0.2,0.1,0.2s0.1,0.1,0.2,0.1c0.1,0,0.2,0.1,0.3,0.1c0.1,0,0.2,0,0.3,0.1c0.1,0,0.2,0.1,0.3,0.1
				s0.2,0.1,0.3,0.1c0.1,0.1,0.1,0.1,0.2,0.2c0,0.1,0.1,0.2,0.1,0.4c0,0.3-0.1,0.5-0.3,0.6c-0.2,0.2-0.5,0.2-0.8,0.2
				c-0.2,0-0.3,0-0.4-0.1c-0.1,0-0.2-0.1-0.3-0.2c-0.1-0.1-0.2-0.2-0.2-0.3c-0.1-0.1-0.1-0.3-0.1-0.4H72.5z"/>
			<path class="st7" d="M77.1,24.2v-3h0.3v3H77.1z"/>
			<path class="st7" d="M81.5,22.9v-0.2h1.3v1.5h-0.2v-0.5c-0.1,0.1-0.1,0.2-0.2,0.2c-0.1,0.1-0.1,0.1-0.2,0.2
				c-0.1,0.1-0.2,0.1-0.3,0.1c-0.1,0-0.2,0-0.4,0c-0.2,0-0.4,0-0.5-0.1c-0.2-0.1-0.3-0.2-0.4-0.3c-0.1-0.1-0.2-0.3-0.3-0.5
				s-0.1-0.4-0.1-0.7c0-0.2,0-0.4,0.1-0.6c0.1-0.2,0.1-0.4,0.3-0.5c0.1-0.1,0.3-0.2,0.4-0.3c0.2-0.1,0.4-0.1,0.6-0.1
				c0.2,0,0.3,0,0.4,0.1c0.1,0,0.3,0.1,0.4,0.2c0.1,0.1,0.2,0.2,0.3,0.3c0.1,0.1,0.1,0.3,0.2,0.4h-0.3c0-0.1-0.1-0.2-0.1-0.3
				c-0.1-0.1-0.1-0.2-0.2-0.2c-0.1-0.1-0.2-0.1-0.3-0.1c-0.1,0-0.2,0-0.3,0c-0.2,0-0.4,0-0.5,0.1c-0.1,0.1-0.3,0.2-0.3,0.3
				c-0.1,0.1-0.2,0.3-0.2,0.5c0,0.2-0.1,0.4-0.1,0.6c0,0.2,0,0.3,0.1,0.5c0,0.1,0.1,0.3,0.2,0.4c0.1,0.1,0.2,0.2,0.3,0.3
				c0.1,0.1,0.3,0.1,0.5,0.1c0.1,0,0.2,0,0.2,0c0.1,0,0.2,0,0.2-0.1c0.1,0,0.2-0.1,0.2-0.2c0.1-0.1,0.1-0.1,0.2-0.2
				c0-0.1,0.1-0.2,0.1-0.3c0-0.1,0-0.2,0-0.3H81.5z"/>
			<path class="st7" d="M85.7,21.6L85.7,21.6l0,2.6h-0.3v-3h0.3l1.7,2.6h0v-2.6h0.3v3h-0.3L85.7,21.6z"/>
			<path class="st7" d="M90.5,24.2v-3h2v0.2h-1.7v1.1h1.5v0.2h-1.5V24h1.7v0.2H90.5z"/>
			<path class="st7" d="M95.3,22.9v1.4l-0.3,0v-3h1.2c0.3,0,0.6,0.1,0.8,0.2c0.2,0.1,0.3,0.3,0.3,0.6c0,0.2,0,0.3-0.1,0.4
				c-0.1,0.1-0.2,0.2-0.4,0.3c0.1,0,0.2,0.1,0.2,0.1c0.1,0.1,0.1,0.1,0.1,0.2c0,0.1,0,0.2,0,0.2c0,0.1,0,0.2,0,0.2
				c0,0.1,0,0.2,0,0.3c0,0.1,0,0.1,0,0.2s0,0.1,0,0.1s0,0,0.1,0.1v0l-0.3,0c0-0.1-0.1-0.1-0.1-0.2c0-0.1,0-0.2,0-0.3
				c0-0.1,0-0.2,0-0.3c0-0.1,0-0.2,0-0.2c0-0.1,0-0.1-0.1-0.2c0,0-0.1-0.1-0.1-0.1c-0.1,0-0.1,0-0.2-0.1c-0.1,0-0.1,0-0.2,0H95.3z
				 M96.2,22.6c0.1,0,0.2,0,0.3,0c0.1,0,0.2-0.1,0.2-0.1c0.1,0,0.1-0.1,0.2-0.2c0-0.1,0.1-0.2,0.1-0.3c0-0.1,0-0.2-0.1-0.3
				c0-0.1-0.1-0.1-0.2-0.2c-0.1,0-0.1-0.1-0.2-0.1c-0.1,0-0.2,0-0.3,0h-0.9v1.2H96.2z"/>
		</g>
	</g>
</g>
</svg>
