<?xml version="1.0" encoding="utf-8"?>
<!-- Generator: Adobe Illustrator 22.0.1, SVG Export Plug-In . SVG Version: 6.00 Build 0)  -->
<svg version="1.1" id="Capa_1" xmlns="http://www.w3.org/2000/svg" xmlns:xlink="http://www.w3.org/1999/xlink" x="0px" y="0px"
	 viewBox="0 0 97.5 32.9" style="enable-background:new 0 0 97.5 32.9;" xml:space="preserve">
<style type="text/css">
	.st0{fill:#DD9F4D;}
	.st1{fill:#79AD6E;}
	.st2{fill:#6F938A;}
	.st3{fill:#4C675F;}
	.st4{fill:#25333B;}
	.st5{fill:#2D3A47;}
	.st6{fill:#83B275;}
	.st7{font-family:'UniversLTPro-UltraCondensed';}
	.st8{font-size:10.2px;}
	.st9{letter-spacing:-1;}
	.st10{fill:#393936;}
	.st11{font-family:'Helvetica-Light';}
	.st12{font-size:5.6905px;}
</style>
<g>
	<g>
		<path class="st0" d="M17,16.5l-1.8-1l0.9-2.2c0-0.1,0-0.1,0-0.2c0-0.2-0.2-0.4-0.4-0.4c-0.1,0-0.2,0-0.3,0.1c0,0,0,0,0,0l-3.2,3
			c-0.1,0.1-0.1,0.2-0.1,0.4c0,0.1,0.1,0.2,0.2,0.3l1.8,1l-0.9,2.2c-0.1,0.2,0,0.4,0.1,0.5c0.1,0,0.2,0.1,0.2,0.1
			c0.1,0,0.2,0,0.3-0.1l3.2-3c0.1-0.1,0.1-0.2,0.1-0.4C17.2,16.7,17.1,16.5,17,16.5"/>
		<polygon class="st1" points="28,17.3 28,8.8 14.7,1 14.7,9.4 		"/>
		<polygon class="st2" points="1.3,15.6 1.3,24.1 14.7,31.9 14.8,23.5 		"/>
		<polygon class="st3" points="27.9,15.7 27.9,24.2 14.7,31.9 14.7,23.4 		"/>
		<polygon class="st4" points="1.3,17.3 1.3,8.9 14.7,1 14.7,9.4 		"/>
		<polygon class="st5" points="8.7,13 1.3,8.9 1.3,24.2 8.7,19.9 		"/>
		<polygon class="st6" points="28,8.8 20.8,13.1 20.7,19.9 28,24.2 		"/>
	</g>
	<g>
		<text transform="matrix(1 0 0 1 32.6792 17.2617)"><tspan x="0" y="0" class="st5 st7 st8">JH</tspan><tspan x="6.8" y="0" class="st5 st7 st8">O</tspan><tspan x="10.6" y="0" class="st5 st7 st8">N</tspan><tspan x="14.7" y="0" class="st5 st7 st8 st9">AT</tspan><tspan x="20.6" y="0" class="st5 st7 st8">A</tspan><tspan x="24.8" y="0" class="st5 st7 st8">N CORREDOR</tspan></text>
		<text transform="matrix(1 0 0 1 32.6792 23.8384)" class="st10 st11 st12">DISEÑADOR VISUAL </text>
	</g>
</g>
</svg>
